<svg version="1.0" preserveAspectRatio="xMidYMid meet" viewBox="0 146.99999647200002 375 86.99999791200001" zoomAndPan="magnify" xmlns:xlink="http://www.w3.org/1999/xlink" xmlns="http://www.w3.org/2000/svg" style="max-height: 500px" width="375" height="86.99999791200001"><defs><g/><clipPath id="38ce72b11e"><path clip-rule="nonzero" d="M 321 169 L 349 169 L 349 197 L 321 197 Z M 321 169"/></clipPath><clipPath id="f04165adea"><path clip-rule="nonzero" d="M 315.898438 173.808594 L 335.011719 156.140625 L 361.1875 184.460938 L 342.074219 202.128906 Z M 315.898438 173.808594"/></clipPath><clipPath id="79212526d6"><path clip-rule="nonzero" d="M 315.898438 173.808594 L 335.011719 156.140625 L 361.1875 184.460938 L 342.074219 202.128906 Z M 315.898438 173.808594"/></clipPath><clipPath id="4a4bf9916a"><path clip-rule="nonzero" d="M 335 156 L 363 156 L 363 185 L 335 185 Z M 335 156"/></clipPath><clipPath id="c945b44bdf"><path clip-rule="nonzero" d="M 329.613281 161.132812 L 348.730469 143.464844 L 374.902344 171.78125 L 355.789062 189.449219 Z M 329.613281 161.132812"/></clipPath><clipPath id="9c4e6247e6"><path clip-rule="nonzero" d="M 329.613281 161.132812 L 348.730469 143.464844 L 374.902344 171.78125 L 355.789062 189.449219 Z M 329.613281 161.132812"/></clipPath></defs><rect fill-opacity="1" height="449.999989" y="-37.499999" fill="#ffffff" width="450" x="-37.5"/><rect fill-opacity="1" height="449.999989" y="-37.499999" fill="#ffffff" width="450" x="-37.5"/><g clip-path="url(#38ce72b11e)"><g clip-path="url(#f04165adea)"><g clip-path="url(#79212526d6)"><path fill-rule="nonzero" fill-opacity="1" d="M 348.300781 170.648438 L 325.132812 169.621094 C 320.65625 169.421875 319.898438 178.136719 325.203125 178.28125 L 339.617188 178.671875 L 338.519531 193.179688 C 338.183594 197.59375 346.796875 198.0625 347.042969 193.574219 Z M 348.300781 170.648438" fill="#18cb96"/></g></g></g><g clip-path="url(#4a4bf9916a)"><g clip-path="url(#c945b44bdf)"><g clip-path="url(#9c4e6247e6)"><path fill-rule="nonzero" fill-opacity="1" d="M 362.015625 157.972656 L 338.847656 156.941406 C 334.371094 156.742188 333.617188 165.460938 338.917969 165.605469 L 353.335938 165.996094 L 352.234375 180.5 C 351.898438 184.917969 360.511719 185.382812 360.757812 180.894531 Z M 362.015625 157.972656" fill="#18cb96"/></g></g></g><g fill-opacity="1" fill="#373643"><g transform="translate(4.680931, 211.830068)"><g><path d="M 8.515625 -2.859375 C 8.515625 -2.097656 8.195312 -1.429688 7.5625 -0.859375 C 6.9375 -0.285156 6.164062 0 5.25 0 C 4.300781 0 3.519531 -0.285156 2.90625 -0.859375 C 2.300781 -1.429688 2 -2.097656 2 -2.859375 L 2 -34.109375 C 2 -34.867188 2.300781 -35.535156 2.90625 -36.109375 C 3.519531 -36.679688 4.300781 -36.96875 5.25 -36.96875 C 6.164062 -36.96875 6.9375 -36.679688 7.5625 -36.109375 C 8.195312 -35.535156 8.515625 -34.867188 8.515625 -34.109375 Z M 8.515625 -2.859375"/></g></g></g><g fill-opacity="1" fill="#373643"><g transform="translate(14.05091, 211.830068)"><g><path d="M 8.578125 -33.375 C 8.578125 -32.414062 8.222656 -31.695312 7.515625 -31.21875 C 6.804688 -30.75 6.050781 -30.515625 5.25 -30.515625 C 4.414062 -30.515625 3.65625 -30.75 2.96875 -31.21875 C 2.28125 -31.695312 1.9375 -32.414062 1.9375 -33.375 L 1.9375 -34.109375 C 1.9375 -35.097656 2.28125 -35.820312 2.96875 -36.28125 C 3.65625 -36.738281 4.414062 -36.96875 5.25 -36.96875 C 6.050781 -36.96875 6.804688 -36.738281 7.515625 -36.28125 C 8.222656 -35.820312 8.578125 -35.097656 8.578125 -34.109375 Z M 2 -26.28125 C 2 -27.195312 2.347656 -27.890625 3.046875 -28.359375 C 3.753906 -28.835938 4.488281 -29.078125 5.25 -29.078125 C 6.050781 -29.078125 6.796875 -28.835938 7.484375 -28.359375 C 8.171875 -27.890625 8.515625 -27.21875 8.515625 -26.34375 L 8.515625 -2.796875 C 8.515625 -1.847656 8.171875 -1.144531 7.484375 -0.6875 C 6.796875 -0.226562 6.050781 0 5.25 0 C 4.488281 0 3.753906 -0.226562 3.046875 -0.6875 C 2.347656 -1.144531 2 -1.847656 2 -2.796875 Z M 2 -26.28125"/></g></g></g><g fill-opacity="1" fill="#373643"><g transform="translate(23.420888, 211.830068)"><g><path d="M 0.0625 -24.796875 C -0.207031 -25.554688 -0.21875 -26.257812 0.03125 -26.90625 C 0.28125 -27.5625 0.695312 -28.085938 1.28125 -28.484375 C 1.875 -28.878906 2.492188 -29.078125 3.140625 -29.078125 C 3.828125 -29.078125 4.425781 -28.894531 4.9375 -28.53125 C 5.457031 -28.175781 5.847656 -27.691406 6.109375 -27.078125 L 14.859375 -9.375 L 23.59375 -27.140625 C 23.9375 -27.828125 24.382812 -28.320312 24.9375 -28.625 C 25.488281 -28.925781 26.070312 -29.078125 26.6875 -29.078125 C 27.375 -29.078125 27.992188 -28.894531 28.546875 -28.53125 C 29.097656 -28.175781 29.476562 -27.679688 29.6875 -27.046875 C 29.894531 -26.421875 29.789062 -25.691406 29.375 -24.859375 L 17.71875 -1.203125 C 17.445312 -0.703125 17.046875 -0.28125 16.515625 0.0625 C 15.984375 0.40625 15.394531 0.578125 14.75 0.578125 C 13.488281 0.578125 12.535156 0.0234375 11.890625 -1.078125 Z M 0.0625 -24.796875"/></g></g></g><g fill-opacity="1" fill="#373643"><g transform="translate(52.960274, 211.830068)"><g><path d="M 16.34375 -5.078125 C 17.445312 -5.078125 18.53125 -5.226562 19.59375 -5.53125 C 20.664062 -5.84375 21.660156 -6.359375 22.578125 -7.078125 C 23.453125 -7.878906 24.304688 -8.25 25.140625 -8.1875 C 25.984375 -8.132812 26.679688 -7.832031 27.234375 -7.28125 C 27.785156 -6.726562 28.0625 -6.039062 28.0625 -5.21875 C 28.0625 -4.40625 27.660156 -3.617188 26.859375 -2.859375 C 25.523438 -1.566406 23.941406 -0.660156 22.109375 -0.140625 C 20.285156 0.367188 18.421875 0.609375 16.515625 0.578125 C 13.546875 0.578125 10.925781 -0.03125 8.65625 -1.25 C 6.382812 -2.46875 4.609375 -4.160156 3.328125 -6.328125 C 2.054688 -8.503906 1.421875 -11.023438 1.421875 -13.890625 C 1.421875 -17.015625 2.03125 -19.753906 3.25 -22.109375 C 4.46875 -24.472656 6.191406 -26.320312 8.421875 -27.65625 C 10.648438 -28.988281 13.289062 -29.65625 16.34375 -29.65625 C 19.382812 -29.65625 21.972656 -29.035156 24.109375 -27.796875 C 26.242188 -26.554688 27.875 -24.820312 29 -22.59375 C 30.125 -20.363281 30.6875 -17.765625 30.6875 -14.796875 C 30.6875 -13.847656 30.492188 -13.039062 30.109375 -12.375 C 29.734375 -11.707031 28.722656 -11.375 27.078125 -11.375 L 8.0625 -11.375 C 8.59375 -9.507812 9.597656 -7.992188 11.078125 -6.828125 C 12.566406 -5.660156 14.320312 -5.078125 16.34375 -5.078125 Z M 16.40625 -24 C 14.1875 -24 12.332031 -23.300781 10.84375 -21.90625 C 9.363281 -20.519531 8.414062 -18.703125 8 -16.453125 L 24.625 -16.453125 C 24.4375 -18.703125 23.691406 -20.519531 22.390625 -21.90625 C 21.097656 -23.300781 19.101562 -24 16.40625 -24 Z M 16.40625 -24"/></g></g></g><g fill-opacity="1" fill="#373643"><g transform="translate(86.156436, 211.830068)"><g><path d="M 0.75 -6.796875 C 0.476562 -7.867188 0.722656 -8.726562 1.484375 -9.375 C 2.242188 -10.019531 3.082031 -10.34375 4 -10.34375 C 4.6875 -10.34375 5.296875 -10.140625 5.828125 -9.734375 C 6.359375 -9.335938 6.757812 -8.738281 7.03125 -7.9375 C 7.257812 -7.25 7.753906 -6.6875 8.515625 -6.25 C 9.273438 -5.8125 10.160156 -5.5 11.171875 -5.3125 C 12.179688 -5.125 13.203125 -5.03125 14.234375 -5.03125 C 16.285156 -5.03125 17.9375 -5.398438 19.1875 -6.140625 C 20.445312 -6.878906 21.078125 -7.820312 21.078125 -8.96875 C 21.078125 -9.769531 20.742188 -10.359375 20.078125 -10.734375 C 19.410156 -11.117188 18.535156 -11.382812 17.453125 -11.53125 C 16.367188 -11.6875 15.21875 -11.804688 14 -11.890625 C 12.394531 -12.035156 10.820312 -12.222656 9.28125 -12.453125 C 7.738281 -12.679688 6.335938 -13.070312 5.078125 -13.625 C 3.828125 -14.175781 2.820312 -14.992188 2.0625 -16.078125 C 1.300781 -17.171875 0.921875 -18.648438 0.921875 -20.515625 C 0.921875 -22.335938 1.453125 -23.9375 2.515625 -25.3125 C 3.578125 -26.6875 5.078125 -27.753906 7.015625 -28.515625 C 8.960938 -29.273438 11.210938 -29.65625 13.765625 -29.65625 C 15.253906 -29.65625 16.851562 -29.507812 18.5625 -29.21875 C 20.28125 -28.9375 21.875 -28.359375 23.34375 -27.484375 C 24.8125 -26.609375 25.890625 -25.253906 26.578125 -23.421875 C 26.835938 -22.660156 26.816406 -21.984375 26.515625 -21.390625 C 26.210938 -20.804688 25.765625 -20.359375 25.171875 -20.046875 C 24.578125 -19.742188 23.976562 -19.59375 23.375 -19.59375 C 22.6875 -19.59375 22.125 -19.726562 21.6875 -20 C 21.25 -20.269531 20.878906 -20.726562 20.578125 -21.375 C 20.234375 -22.175781 19.648438 -22.765625 18.828125 -23.140625 C 18.003906 -23.523438 17.125 -23.765625 16.1875 -23.859375 C 15.257812 -23.953125 14.453125 -24 13.765625 -24 C 11.859375 -24 10.320312 -23.675781 9.15625 -23.03125 C 8 -22.382812 7.421875 -21.523438 7.421875 -20.453125 C 7.421875 -19.535156 7.722656 -18.914062 8.328125 -18.59375 C 8.941406 -18.269531 9.773438 -18.078125 10.828125 -18.015625 C 11.878906 -17.960938 13.050781 -17.863281 14.34375 -17.71875 C 15.945312 -17.519531 17.523438 -17.304688 19.078125 -17.078125 C 20.640625 -16.859375 22.066406 -16.46875 23.359375 -15.90625 C 24.660156 -15.351562 25.691406 -14.535156 26.453125 -13.453125 C 27.210938 -12.367188 27.59375 -10.875 27.59375 -8.96875 C 27.59375 -7.101562 27.03125 -5.445312 25.90625 -4 C 24.789062 -2.550781 23.234375 -1.425781 21.234375 -0.625 C 19.234375 0.175781 16.898438 0.578125 14.234375 0.578125 C 13.046875 0.578125 11.753906 0.488281 10.359375 0.3125 C 8.972656 0.144531 7.625 -0.191406 6.3125 -0.703125 C 5 -1.222656 3.847656 -1.96875 2.859375 -2.9375 C 1.867188 -3.914062 1.164062 -5.203125 0.75 -6.796875 Z M 0.75 -6.796875"/></g></g></g><g fill-opacity="1" fill="#373643"><g transform="translate(114.553077, 211.830068)"><g><path d="M 15.71875 -5.421875 C 16.59375 -5.921875 17.378906 -6.09375 18.078125 -5.9375 C 18.785156 -5.789062 19.359375 -5.457031 19.796875 -4.9375 C 20.234375 -4.425781 20.453125 -3.828125 20.453125 -3.140625 C 20.453125 -2.648438 20.300781 -2.15625 20 -1.65625 C 19.695312 -1.164062 19.222656 -0.75 18.578125 -0.40625 C 17.734375 0.0507812 16.96875 0.328125 16.28125 0.421875 C 15.59375 0.523438 14.796875 0.578125 13.890625 0.578125 C 11.410156 0.578125 9.503906 0.0625 8.171875 -0.96875 C 6.835938 -2 5.921875 -3.332031 5.421875 -4.96875 C 4.929688 -6.601562 4.6875 -8.335938 4.6875 -10.171875 L 4.6875 -23.65625 L 2.515625 -23.65625 C 1.453125 -23.65625 0.660156 -23.941406 0.140625 -24.515625 C -0.367188 -25.085938 -0.625 -25.695312 -0.625 -26.34375 C -0.625 -27.03125 -0.359375 -27.65625 0.171875 -28.21875 C 0.703125 -28.789062 1.484375 -29.078125 2.515625 -29.078125 L 4.6875 -29.078125 L 4.6875 -34 C 4.6875 -34.988281 5.007812 -35.726562 5.65625 -36.21875 C 6.300781 -36.71875 7.046875 -36.96875 7.890625 -36.96875 C 8.679688 -36.96875 9.421875 -36.71875 10.109375 -36.21875 C 10.796875 -35.726562 11.140625 -34.988281 11.140625 -34 L 11.140625 -29.078125 L 15.59375 -29.078125 C 16.582031 -29.078125 17.34375 -28.789062 17.875 -28.21875 C 18.414062 -27.65625 18.6875 -27.03125 18.6875 -26.34375 C 18.6875 -25.65625 18.414062 -25.035156 17.875 -24.484375 C 17.34375 -23.929688 16.582031 -23.65625 15.59375 -23.65625 L 11.140625 -23.65625 L 11.140625 -10.171875 C 11.140625 -9.328125 11.195312 -8.515625 11.3125 -7.734375 C 11.425781 -6.960938 11.679688 -6.316406 12.078125 -5.796875 C 12.484375 -5.285156 13.085938 -5.03125 13.890625 -5.03125 C 14.191406 -5.03125 14.519531 -5.078125 14.875 -5.171875 C 15.238281 -5.265625 15.519531 -5.347656 15.71875 -5.421875 Z M 15.71875 -5.421875"/></g></g></g><g fill-opacity="1" fill="#373643"><g transform="translate(134.379153, 211.830068)"><g><path d="M 16.34375 -29.65625 C 19.382812 -29.65625 22.046875 -29.015625 24.328125 -27.734375 C 26.617188 -26.460938 28.394531 -24.679688 29.65625 -22.390625 C 30.914062 -20.109375 31.546875 -17.445312 31.546875 -14.40625 C 31.503906 -11.425781 30.84375 -8.8125 29.5625 -6.5625 C 28.289062 -4.320312 26.519531 -2.570312 24.25 -1.3125 C 21.988281 -0.0507812 19.351562 0.578125 16.34375 0.578125 C 13.375 0.578125 10.742188 -0.0507812 8.453125 -1.3125 C 6.171875 -2.570312 4.390625 -4.320312 3.109375 -6.5625 C 1.835938 -8.8125 1.179688 -11.425781 1.140625 -14.40625 C 1.140625 -17.445312 1.773438 -20.109375 3.046875 -22.390625 C 4.328125 -24.679688 6.109375 -26.460938 8.390625 -27.734375 C 10.679688 -29.015625 13.332031 -29.65625 16.34375 -29.65625 Z M 16.34375 -5.140625 C 18.9375 -5.140625 21.003906 -5.992188 22.546875 -7.703125 C 24.085938 -9.421875 24.859375 -11.65625 24.859375 -14.40625 C 24.859375 -17.21875 24.085938 -19.507812 22.546875 -21.28125 C 21.003906 -23.050781 18.9375 -23.9375 16.34375 -23.9375 C 13.789062 -23.9375 11.734375 -23.050781 10.171875 -21.28125 C 8.609375 -19.507812 7.828125 -17.21875 7.828125 -14.40625 C 7.828125 -11.65625 8.609375 -9.421875 10.171875 -7.703125 C 11.734375 -5.992188 13.789062 -5.140625 16.34375 -5.140625 Z M 16.34375 -5.140625"/></g></g></g><g fill-opacity="1" fill="#373643"><g transform="translate(166.089741, 211.830068)"><g><path d="M 22.578125 -21.25 C 21.691406 -22.28125 20.660156 -23.003906 19.484375 -23.421875 C 18.304688 -23.847656 17.144531 -24.0625 16 -24.0625 C 13.488281 -24.0625 11.46875 -23.191406 9.9375 -21.453125 C 8.414062 -19.722656 7.65625 -17.390625 7.65625 -14.453125 C 7.65625 -11.640625 8.445312 -9.375 10.03125 -7.65625 C 11.613281 -5.9375 13.679688 -5.078125 16.234375 -5.078125 C 17.367188 -5.078125 18.523438 -5.273438 19.703125 -5.671875 C 20.890625 -6.078125 21.941406 -6.738281 22.859375 -7.65625 C 23.691406 -8.488281 24.519531 -8.925781 25.34375 -8.96875 C 26.164062 -9.007812 26.84375 -8.78125 27.375 -8.28125 C 27.90625 -7.789062 28.195312 -7.15625 28.25 -6.375 C 28.3125 -5.59375 27.976562 -4.800781 27.25 -4 C 25.769531 -2.363281 24.066406 -1.191406 22.140625 -0.484375 C 20.210938 0.222656 18.222656 0.578125 16.171875 0.578125 C 13.160156 0.578125 10.519531 -0.0507812 8.25 -1.3125 C 5.988281 -2.570312 4.226562 -4.320312 2.96875 -6.5625 C 1.707031 -8.8125 1.078125 -11.425781 1.078125 -14.40625 C 1.078125 -17.488281 1.695312 -20.171875 2.9375 -22.453125 C 4.175781 -24.742188 5.921875 -26.515625 8.171875 -27.765625 C 10.421875 -29.023438 13.03125 -29.65625 16 -29.65625 C 18.09375 -29.65625 20.046875 -29.332031 21.859375 -28.6875 C 23.671875 -28.039062 25.335938 -26.820312 26.859375 -25.03125 C 27.546875 -24.226562 27.835938 -23.445312 27.734375 -22.6875 C 27.640625 -21.925781 27.304688 -21.296875 26.734375 -20.796875 C 26.171875 -20.304688 25.5 -20.066406 24.71875 -20.078125 C 23.9375 -20.097656 23.222656 -20.488281 22.578125 -21.25 Z M 22.578125 -21.25"/></g></g></g><g fill-opacity="1" fill="#373643"><g transform="translate(194.657783, 211.830068)"><g><path d="M 25.59375 -4.921875 C 26.25 -4.117188 26.507812 -3.34375 26.375 -2.59375 C 26.238281 -1.851562 25.875 -1.234375 25.28125 -0.734375 C 24.695312 -0.242188 24.019531 0 23.25 0 C 22.226562 0 21.351562 -0.414062 20.625 -1.25 L 10.96875 -12 L 9.3125 -10.515625 L 9.3125 -2.921875 C 9.3125 -1.960938 8.957031 -1.234375 8.25 -0.734375 C 7.550781 -0.242188 6.800781 0 6 0 C 5.164062 0 4.421875 -0.242188 3.765625 -0.734375 C 3.117188 -1.234375 2.796875 -1.960938 2.796875 -2.921875 L 2.796875 -34.0625 C 2.796875 -35.050781 3.117188 -35.78125 3.765625 -36.25 C 4.421875 -36.726562 5.1875 -36.96875 6.0625 -36.96875 C 6.9375 -36.96875 7.695312 -36.726562 8.34375 -36.25 C 8.988281 -35.78125 9.3125 -35.050781 9.3125 -34.0625 L 9.3125 -18.28125 L 19.890625 -28.171875 C 20.609375 -28.773438 21.40625 -29.078125 22.28125 -29.078125 C 23.195312 -29.078125 23.976562 -28.78125 24.625 -28.1875 C 25.269531 -27.601562 25.59375 -26.929688 25.59375 -26.171875 C 25.59375 -25.441406 25.195312 -24.695312 24.40625 -23.9375 L 15.421875 -16 Z M 25.59375 -4.921875"/></g></g></g><g fill-opacity="1" fill="#373643"><g transform="translate(220.654665, 211.830068)"><g><path d="M 1.3125 -24.796875 C 0.96875 -25.597656 0.9375 -26.320312 1.21875 -26.96875 C 1.507812 -27.613281 1.957031 -28.125 2.5625 -28.5 C 3.175781 -28.882812 3.804688 -29.078125 4.453125 -29.078125 C 5.097656 -29.078125 5.707031 -28.878906 6.28125 -28.484375 C 6.851562 -28.085938 7.234375 -27.640625 7.421875 -27.140625 L 14.859375 -10.171875 L 22 -24.859375 C 22.269531 -25.503906 22.671875 -25.988281 23.203125 -26.3125 C 23.734375 -26.632812 24.320312 -26.796875 24.96875 -26.796875 C 26.375 -26.796875 27.382812 -26.164062 28 -24.90625 L 35.203125 -10.0625 L 42.5625 -27.03125 C 43.175781 -28.394531 44.207031 -29.078125 45.65625 -29.078125 C 46.644531 -29.078125 47.488281 -28.664062 48.1875 -27.84375 C 48.894531 -27.03125 49.003906 -26.035156 48.515625 -24.859375 L 38.40625 -1.078125 C 37.976562 0.0234375 37.003906 0.578125 35.484375 0.578125 C 34.835938 0.578125 34.238281 0.453125 33.6875 0.203125 C 33.132812 -0.046875 32.707031 -0.457031 32.40625 -1.03125 L 25.078125 -16.515625 L 17.59375 -1.078125 C 17.0625 0.0234375 16.035156 0.578125 14.515625 0.578125 C 13.867188 0.578125 13.296875 0.453125 12.796875 0.203125 C 12.304688 -0.046875 11.90625 -0.492188 11.59375 -1.140625 Z M 1.3125 -24.796875"/></g></g></g><g fill-opacity="1" fill="#373643"><g transform="translate(270.420573, 211.830068)"><g><path d="M 26.578125 -29.078125 C 27.566406 -29.078125 28.351562 -28.800781 28.9375 -28.25 C 29.53125 -27.695312 29.828125 -26.984375 29.828125 -26.109375 L 29.828125 -2.96875 C 29.828125 -2.09375 29.53125 -1.378906 28.9375 -0.828125 C 28.351562 -0.273438 27.566406 0 26.578125 0 C 25.617188 0 24.875 -0.21875 24.34375 -0.65625 C 23.8125 -1.09375 23.488281 -1.675781 23.375 -2.40625 C 22.070312 -1.375 20.617188 -0.617188 19.015625 -0.140625 C 17.421875 0.335938 15.898438 0.578125 14.453125 0.578125 C 11.710938 0.578125 9.34375 -0.0507812 7.34375 -1.3125 C 5.34375 -2.570312 3.804688 -4.34375 2.734375 -6.625 C 1.671875 -8.914062 1.140625 -11.582031 1.140625 -14.625 C 1.140625 -17.59375 1.726562 -20.203125 2.90625 -22.453125 C 4.09375 -24.703125 5.742188 -26.460938 7.859375 -27.734375 C 9.972656 -29.015625 12.421875 -29.65625 15.203125 -29.65625 C 16.421875 -29.65625 17.769531 -29.425781 19.25 -28.96875 C 20.738281 -28.507812 22.113281 -27.785156 23.375 -26.796875 C 23.519531 -27.484375 23.859375 -28.035156 24.390625 -28.453125 C 24.929688 -28.867188 25.660156 -29.078125 26.578125 -29.078125 Z M 15.140625 -5.203125 C 16.816406 -5.203125 18.4375 -5.570312 20 -6.3125 C 21.5625 -7.050781 22.664062 -8.144531 23.3125 -9.59375 L 23.3125 -19.484375 C 22.59375 -20.890625 21.507812 -21.972656 20.0625 -22.734375 C 18.613281 -23.503906 17.144531 -23.890625 15.65625 -23.890625 C 13.257812 -23.890625 11.328125 -23.007812 9.859375 -21.25 C 8.390625 -19.5 7.65625 -17.273438 7.65625 -14.578125 C 7.65625 -11.753906 8.335938 -9.484375 9.703125 -7.765625 C 11.078125 -6.054688 12.890625 -5.203125 15.140625 -5.203125 Z M 15.140625 -5.203125"/></g></g></g><g fill-opacity="1" fill="#373643"><g transform="translate(303.445334, 211.830068)"><g><path d="M 26.625 -29.078125 C 27.613281 -29.078125 28.460938 -28.648438 29.171875 -27.796875 C 29.878906 -26.941406 30.019531 -25.941406 29.59375 -24.796875 L 12.90625 7.9375 C 12.53125 8.664062 12.046875 9.238281 11.453125 9.65625 C 10.867188 10.070312 10.25 10.28125 9.59375 10.28125 C 8.945312 10.28125 8.347656 10.0625 7.796875 9.625 C 7.242188 9.1875 6.863281 8.625 6.65625 7.9375 C 6.445312 7.25 6.53125 6.523438 6.90625 5.765625 L 11.25 -2.796875 L 0 -24.578125 C -0.34375 -25.335938 -0.390625 -26.054688 -0.140625 -26.734375 C 0.109375 -27.421875 0.515625 -27.984375 1.078125 -28.421875 C 1.648438 -28.859375 2.28125 -29.078125 2.96875 -29.078125 C 3.582031 -29.078125 4.171875 -28.882812 4.734375 -28.5 C 5.304688 -28.125 5.726562 -27.632812 6 -27.03125 L 14.796875 -9.828125 L 23.59375 -27.078125 C 23.863281 -27.691406 24.265625 -28.175781 24.796875 -28.53125 C 25.328125 -28.894531 25.9375 -29.078125 26.625 -29.078125 Z M 26.625 -29.078125"/></g></g></g></svg>